<svg width="45" height="45" xmlns="http://www.w3.org/2000/svg" xmlns:xlink="http://www.w3.org/1999/xlink" xml:space="preserve" overflow="hidden"><g transform="translate(-714 -176)"><path d="M753.803 206.938 753.803 205.531 754.781 205.531 754.781 203.656 742.594 203.656 742.594 205.531 743.489 205.531 743.489 206.938 742.594 206.938 741.188 208.344 736.5 208.344 736.5 203.656 738.453 203.656C740.911 203.66 742.907 201.671 742.911 199.213 742.914 197.52 741.955 195.971 740.438 195.219L742.125 195.219 742.125 193.344 736.5 193.344 736.5 191.469 737.906 191.469C739.46 191.468 740.718 190.208 740.718 188.655 740.717 187.713 740.245 186.833 739.46 186.312L740.719 186.312 740.719 184.438 736.5 184.438 736.5 181.625 734.625 181.625 734.625 184.438 729.938 184.438 729.938 186.312 731.96 186.312C733.254 187.169 733.608 188.912 732.752 190.206 732.415 190.716 731.92 191.102 731.344 191.305L731.344 191.469 734.625 191.469 734.625 193.344 728.062 193.344 728.062 195.219 730.042 195.219C732.244 196.309 733.144 198.978 732.054 201.179 731.527 202.243 730.596 203.052 729.469 203.426L729.469 203.656 734.625 203.656 734.625 208.344 729.938 208.344 728.531 206.938 726.145 206.938 726.145 205.531 727.125 205.531 727.125 203.656 721.969 203.656 721.969 200.375 723.375 200.375C724.928 200.374 726.187 199.115 726.186 197.561 726.186 196.619 725.714 195.74 724.928 195.219L726.188 195.219 726.188 193.344 721.969 193.344 721.969 190.531 720.094 190.531 720.094 193.344 715.406 193.344 715.406 195.219 717.43 195.219C718.724 196.076 719.078 197.819 718.222 199.113 717.884 199.622 717.389 200.008 716.812 200.211L716.812 200.375 720.094 200.375 720.094 203.656 714.938 203.656 714.938 205.531 715.833 205.531 715.833 206.938 714.938 206.938 714.938 208.812 718.219 208.812 724.781 215.375 746.372 215.375 752.906 208.839 758.062 208.839 758.062 206.938ZM717.71 206.938 717.71 205.531 720.094 205.531 720.094 206.938ZM721.969 206.938 721.969 205.531 724.27 205.531 724.27 206.938ZM747.75 206.938 745.364 206.938 745.364 205.531 747.75 205.531ZM751.927 206.938 749.625 206.938 749.625 205.531 751.927 205.531Z" fill="#7030A0"/></g></svg>