<svg width="34" height="34" xmlns="http://www.w3.org/2000/svg" xmlns:xlink="http://www.w3.org/1999/xlink" xml:space="preserve" overflow="hidden"><g transform="translate(-707 -333)"><path d="M719.75 337.959 719.75 336.011 717.271 333.708 717.271 341.854 719.042 343.448 723.823 343.448 728.959 343.448 730.729 341.854 730.729 333.708 728.25 336.011 728.25 337.959 726.479 337.959 726.479 336.011 724 333.708 721.521 336.011 721.521 337.959 719.75 337.959Z"/><path d="M729.667 357.615 728.958 344.865 719.042 344.865 718.333 357.615 716.562 359.385 716.562 365.76 731.438 365.76 731.438 359.385ZM725.417 351.594 722.583 351.594 722.583 349.115C722.583 348.332 723.218 347.698 724 347.698 724.782 347.698 725.417 348.332 725.417 349.115Z"/></g></svg>